<?xml version="1.0" encoding="UTF-8"?>
<!-- Do not edit this file with editors other than draw.io -->
<!DOCTYPE svg PUBLIC "-//W3C//DTD SVG 1.1//EN" "http://www.w3.org/Graphics/SVG/1.1/DTD/svg11.dtd">
<svg xmlns="http://www.w3.org/2000/svg" style="background: transparent; background-color: transparent; color-scheme: light dark;" xmlns:xlink="http://www.w3.org/1999/xlink" version="1.1" width="699px" height="699px" viewBox="0 0 699 699" content="&lt;mxfile host=&quot;Electron&quot; scale=&quot;1&quot; border=&quot;0&quot;&gt;&#10;  &lt;diagram name=&quot;Página-1&quot; id=&quot;TQxc2zdhgMhssLK9e1Sb&quot;&gt;&#10;    &lt;mxGraphModel dx=&quot;1542&quot; dy=&quot;914&quot; grid=&quot;1&quot; gridSize=&quot;10&quot; guides=&quot;1&quot; tooltips=&quot;1&quot; connect=&quot;1&quot; arrows=&quot;1&quot; fold=&quot;1&quot; page=&quot;1&quot; pageScale=&quot;1&quot; pageWidth=&quot;827&quot; pageHeight=&quot;1169&quot; math=&quot;0&quot; shadow=&quot;0&quot;&gt;&#10;      &lt;root&gt;&#10;        &lt;mxCell id=&quot;0&quot; /&gt;&#10;        &lt;mxCell id=&quot;1&quot; parent=&quot;0&quot; /&gt;&#10;        &lt;mxCell id=&quot;2&quot; parent=&quot;1&quot; style=&quot;sketch=0;points=[[0,0,0],[0.25,0,0],[0.5,0,0],[0.75,0,0],[1,0,0],[0,1,0],[0.25,1,0],[0.5,1,0],[0.75,1,0],[1,1,0],[0,0.25,0],[0,0.5,0],[0,0.75,0],[1,0.25,0],[1,0.5,0],[1,0.75,0]];outlineConnect=0;fontColor=#232F3E;gradientColor=#4D72F3;gradientDirection=north;fillColor=#3334B9;strokeColor=#ffffff;dashed=0;verticalLabelPosition=bottom;verticalAlign=top;align=center;html=1;fontSize=12;fontStyle=0;aspect=fixed;shape=mxgraph.aws4.resourceIcon;resIcon=mxgraph.aws4.connect;&quot; value=&quot;&quot; vertex=&quot;1&quot;&gt;&#10;          &lt;mxGeometry height=&quot;698&quot; width=&quot;698&quot; x=&quot;70&quot; y=&quot;110&quot; as=&quot;geometry&quot; /&gt;&#10;        &lt;/mxCell&gt;&#10;      &lt;/root&gt;&#10;    &lt;/mxGraphModel&gt;&#10;  &lt;/diagram&gt;&#10;&lt;/mxfile&gt;&#10;"><defs><linearGradient x1="0%" y1="100%" x2="0%" y2="0%" id="drawio-svg-1W9qRc5EShOVdJRVFAvf-gradient-_4d72f3-1-_3334b9-1-s-0"><stop offset="0%" stop-color="#3334B9" stop-opacity="1" style="stop-color: rgb(51, 52, 185); stop-opacity: 1;"/><stop offset="100%" stop-color="#4D72F3" stop-opacity="1" style="stop-color: rgb(77, 114, 243); stop-opacity: 1;"/></linearGradient></defs><g><g data-cell-id="0"><g data-cell-id="1"><g data-cell-id="2iRxzlG-HdVX6t_0izOc-1"><g transform="translate(0.5,0.5)"><path d="M 0 0 L 698 0 L 698 698 L 0 698 Z" fill="url(#drawio-svg-1W9qRc5EShOVdJRVFAvf-gradient-_4d72f3-1-_3334b9-1-s-0)" stroke="none" pointer-events="all" style="fill: url(&quot;#drawio-svg-1W9qRc5EShOVdJRVFAvf-gradient-_4d72f3-1-_3334b9-1-s-0&quot;);"/><path d="M 464.38 320.4 C 453.58 320.4 444.79 311.63 444.79 300.86 C 444.79 290.07 453.58 281.3 464.38 281.3 C 475.19 281.3 483.98 290.07 483.98 300.86 C 483.98 311.63 475.19 320.4 464.38 320.4 M 376.21 418.13 C 365.41 418.13 356.62 409.36 356.62 398.58 C 356.62 387.81 365.41 379.04 376.21 379.04 C 387.02 379.04 395.81 387.81 395.81 398.58 C 395.81 409.36 387.02 418.13 376.21 418.13 M 297.84 300.86 C 287.04 300.86 278.25 292.09 278.25 281.3 C 278.25 270.53 287.04 261.76 297.84 261.76 C 308.65 261.76 317.44 270.53 317.44 281.3 C 317.44 292.09 308.65 300.86 297.84 300.86 M 199.88 398.58 C 189.07 398.58 180.28 389.82 180.28 379.04 C 180.28 368.26 189.07 359.49 199.88 359.49 C 210.68 359.49 219.47 368.26 219.47 379.04 C 219.47 389.82 210.68 398.58 199.88 398.58 M 464.38 261.76 C 442.77 261.76 425.2 279.29 425.2 300.86 C 425.2 311.21 429.33 320.59 435.95 327.58 L 400.34 368.01 C 393.67 362.76 385.36 359.49 376.21 359.49 C 372.23 359.49 368.45 360.26 364.81 361.38 L 328.25 305.68 C 333.65 298.96 337.03 290.56 337.03 281.3 C 337.03 259.75 319.45 242.21 297.84 242.21 C 276.23 242.21 258.66 259.75 258.66 281.3 C 258.66 289.81 261.47 297.63 266.12 304.07 L 222.59 347.29 C 216.16 342.71 208.36 339.94 199.88 339.94 C 178.27 339.94 160.69 357.48 160.69 379.04 C 160.69 400.59 178.27 418.13 199.88 418.13 C 221.49 418.13 239.06 400.59 239.06 379.04 C 239.06 373.06 237.6 367.43 235.18 362.37 L 281.27 316.6 C 286.31 318.97 291.9 320.4 297.84 320.4 C 303.05 320.4 308.01 319.33 312.58 317.49 L 348.05 371.52 C 341.26 378.56 337.03 388.06 337.03 398.58 C 337.03 420.15 354.6 437.67 376.21 437.67 C 397.83 437.67 415.4 420.15 415.4 398.58 C 415.4 393.37 414.33 388.41 412.46 383.86 L 452.83 338.02 C 456.51 339.15 460.34 339.94 464.38 339.94 C 485.99 339.94 503.57 322.41 503.57 300.86 C 503.57 279.29 485.99 261.76 464.38 261.76 M 527.39 457.23 L 437.83 457.23 C 435.76 457.23 433.74 457.87 432.06 459.1 L 278.25 570.97 L 278.25 466.99 C 278.25 461.61 273.87 457.23 268.45 457.23 L 157.98 457.23 C 148.06 457.22 140.24 455.32 134.06 451.42 C 113.68 438.58 89.39 413.9 89.39 369.14 C 89.39 309.42 131.04 289.83 155.87 283.48 C 160.41 282.31 163.48 278.1 163.21 273.42 L 162.22 257.04 C 162.22 209.48 195.06 158.33 236.97 140.57 C 255.83 132.59 273.25 129.41 289.06 129.41 C 333.97 129.41 365.7 155.12 379.56 169.03 C 394.79 184.33 406.69 203.86 414.9 227.13 C 416.11 230.54 419.11 233 422.7 233.53 C 426.31 234.05 429.88 232.57 432.03 229.66 C 444.49 212.8 465.94 205.77 485.4 212.15 C 507.23 219.31 519.83 240.53 520.05 270.44 L 519.99 270.76 C 519.17 276.04 522.73 281.01 528 281.91 C 546.92 285.16 608.61 301.12 608.61 369.97 C 608.61 449.99 530 457 527.39 457.23 M 539.44 264.3 C 537.43 229.05 519.83 202.87 491.51 193.58 C 469.28 186.29 445.23 191.31 427.6 206.03 C 418.87 186.3 407.43 169.27 393.45 155.25 C 348.61 110.24 287.24 98.04 229.32 122.58 C 179.89 143.51 142.63 201.32 142.65 257.61 L 143.2 266.82 C 116.25 275.61 69.8 300.73 69.8 369.14 C 69.8 425.63 103.5 455.3 123.59 467.94 C 133 473.87 144.23 476.76 157.97 476.77 L 258.66 476.77 L 258.66 590.18 C 258.66 593.87 260.72 597.24 264.02 598.9 C 265.41 599.62 266.93 599.96 268.45 599.96 C 270.49 599.96 272.52 599.33 274.22 598.09 L 441.03 476.77 L 528.11 476.75 C 529.1 476.67 628.2 468.32 628.2 369.97 C 628.2 294.13 567.96 271 539.44 264.3" fill="#ffffff" stroke="none" pointer-events="all" style="fill: rgb(255, 255, 255);"/></g></g></g></g></g></svg>